PathFileType	4	(X/Y/Z)	Patient4_TMGait_0pt7_02_left_44.trc.trc
DataRate	CameraRate	NumFrames	NumMarkers	Units	OrigDataRate	OrigDataStartFrame	OrigNumFrames
89.171974522293	89.171974522293	6	33	mm	89.171974522293	18	       141
Frame#	Time	Sacral			L.Shoulder			Chest			R.Shoulder			Neck			R.ASIS			L.ASIS			R.Thigh.Superior			R.Thigh.Lateral			R.Thigh.Inferior			R.Patella			L.Thigh.Superior			L.Thigh.Lateral			L.Thigh.Inferior			L.Patella			L.Shank.Superior			L.Shank.Lateral			L.Shank.Inferior			R.Shank.Superior			R.Shank.Lateral			R.Shank.Inferior			R.Heel			R.Midfoot.Superior			R.Midfoot.Lateral			R.Toe			L.Heel			L.Midfoot.Lateral			L.Midfoot.Superior			L.Toe			L.Elbow			L.Wrist			R.Elbow			R.Wrist			
		X1	Y1	Z1	X2	Y2	Z2	X3	Y3	Z3	X4	Y4	Z4	X5	Y5	Z5	X6	Y6	Z6	X7	Y7	Z7	X8	Y8	Z8	X9	Y9	Z9	X10	Y10	Z10	X11	Y11	Z11	X12	Y12	Z12	X13	Y13	Z13	X14	Y14	Z14	X15	Y15	Z15	X16	Y16	Z16	X17	Y17	Z17	X18	Y18	Z18	X19	Y19	Z19	X20	Y20	Z20	X21	Y21	Z21	X22	Y22	Z22	X23	Y23	Z23	X24	Y24	Z24	X25	Y25	Z25	X26	Y26	Z26	X27	Y27	Z27	X28	Y28	Z28	X29	Y29	Z29	X30	Y30	Z30	X31	Y31	Z31	X32	Y32	Z32	X33	Y33	Z33	

18	50.580642857143	724.577337886665	1010.617248668572	507.429924184944	907.761578510478	1417.141884038405	295.445782225883	1025.255146237895	1346.835091704234	446.905984469778	968.475354297401	1436.850311746658	624.040993241170	927.113168964731	1483.925967224848	447.539230915090	951.295039037822	937.019628090409	614.363966720406	925.171140666787	945.950146965702	339.139650110252	954.357785845757	724.132105082051	590.566571273103	851.876880562251	630.002595096954	651.379231306818	914.194288831794	564.330770578197	571.832123791141	896.713973791783	478.982175705805	575.874996812974	1012.919598818545	790.455004363511	380.243449067547	991.001634983602	659.738127252819	294.876749475347	1098.820858571214	614.038884102399	361.823585751940	1134.535906095410	543.522362404990	356.749815802536	1110.404062887170	465.501350322783	345.210770856668	1034.435632513053	345.192583075536	283.799663370085	1104.786798649478	235.390679359217	340.871436355668	858.517046342333	395.332248433979	583.106135741784	775.932364537167	301.269988839498	645.472181089301	804.258415879635	202.242456675182	580.969995419745	653.118577905380	44.890619048879	551.672418353222	824.608854007571	96.176626602379	588.679580552256	735.205686672672	37.377233719731	626.957238844858	943.704269636625	40.710821335049	619.247283393316	1000.921822312637	62.949241554765	365.678323445623	1080.328537715798	64.890270761570	290.873319297874	1155.043306860770	135.932177127556	319.402850968165	1287.479054501857	97.351737227618	300.568632663884	764.827553395283	1089.727809300437	210.815452232489	727.006905420826	832.815519182550	230.823856784216	1106.845549905732	1138.807463498475	762.879104177301	1337.447207253987	1129.774409831007	652.294120664144	
19	50.591857142857	726.240359734365	1009.259670842879	505.232943530133	907.977598610688	1416.391790899357	293.789058182355	1025.547600428012	1346.065039393314	445.114462944627	968.564952912052	1435.859633417953	622.215559193099	927.032585029416	1482.899160496754	446.019865286740	952.533929523197	935.908048728628	612.447540112277	927.015016160868	944.518675633242	337.083522124411	953.053913744036	722.479124312596	589.178949532290	849.072490100089	629.465926950914	650.148035036453	910.519399501929	562.981378112844	570.866243487274	892.100585284360	477.782739919042	575.029317035936	1012.711366525528	786.080627680606	378.299300989942	988.254623839457	655.456702558969	293.087857944929	1094.946875150709	608.278704821140	360.444991031906	1129.785906221019	538.924099634543	355.677923122465	1107.446009883211	461.623810916475	343.712704235674	1035.259806951723	338.740939437651	282.694983329591	1109.289116586740	231.364674847689	340.022005626423	853.080552553784	394.389354756241	582.280966252899	769.766311544954	301.197523393814	644.906896874118	797.269789961500	201.800485189416	580.637211386439	645.223268680183	44.891748809111	551.596939619089	816.693703255922	96.168272015489	588.652737698445	727.281471611886	37.386853753685	626.921279474567	935.768379087638	40.602430172219	619.289570993845	1010.886697810974	56.048462064052	365.301969449479	1090.441890409367	59.770626774277	290.573200691865	1163.178995214631	132.909191690262	319.027331944850	1296.830807126588	97.796317278603	300.589910896184	758.180824711543	1092.885212293000	209.724899684943	716.057329498638	836.597081251204	231.713562405635	1111.245304012442	1139.775762206072	758.643951392429	1341.389480354211	1142.892604100831	647.971732120833	
20	50.603071428571	728.096642969289	1007.621135623767	502.826999360004	908.200299895831	1415.479837300478	291.993170139925	1025.836072251996	1345.244053964699	443.248054967381	968.436762343435	1434.683511975411	620.317671756284	926.825191898198	1481.706096829417	444.376519259480	954.038094732175	934.587488295110	610.379418601374	929.128654574514	942.905273434661	334.963909364252	952.099733470069	720.672452881351	587.553432918024	846.720326926766	628.758074419944	648.752395933265	907.264440658693	561.510462360833	569.658726654736	887.912257073544	476.371014195527	573.972031429402	1012.808055805868	781.409887873425	376.276660578325	985.671930961225	651.069716467657	291.194064638453	1091.247416455112	602.381489436985	358.946889655046	1124.970300071074	533.925797267013	354.346177466258	1104.127620935765	457.309397447213	341.959031429111	1034.751546318823	332.356118196994	281.982026792060	1112.052706545442	227.154016065246	339.303085967514	847.998313046433	393.268161100909	581.313709127717	763.864989717463	301.040718551454	644.260310703433	790.387036392123	201.252937452432	580.246579379197	637.321329526625	44.873015145745	551.526494295118	808.772978488163	96.150996532487	588.603224190388	719.359479353715	37.383218256426	626.888994722822	927.843710405149	40.479768017773	619.336324228920	1018.046628449970	50.181869660699	365.762925097238	1097.324935693840	54.950445260531	290.731295303331	1168.828578804121	129.343360931234	318.770475103843	1303.144457838649	96.417197565412	300.112243659261	752.277358645995	1095.682742192075	208.784479877374	705.759334415969	840.097305379782	232.408096704888	1115.063062737504	1140.306234687346	754.223521742559	1344.278512581868	1155.097870383000	643.783226628774	
21	50.614285714286	730.084094488599	1005.739682623021	500.220940091324	908.434565468586	1414.405002818948	290.043928879804	1026.130157715013	1344.371708184140	441.294963382720	968.113884335648	1433.327485166550	618.344594540293	926.521899649481	1480.364381668335	442.590057878917	955.766109527763	933.065231050107	608.162714907428	931.448543269326	941.146440388586	332.792182322695	951.538710386398	718.730146456413	585.698689851347	844.885393991806	627.866184358762	647.178150869452	904.535176297319	559.908835679640	568.208342935555	884.253871780253	474.717582307021	572.683227613157	1013.226065366814	776.626890702396	374.140893036770	983.303904468242	646.719304886449	289.235895212297	1087.890671192981	596.588042720076	357.264190383522	1120.281013478057	528.739613977669	352.758219934269	1100.646391381252	452.729038289677	340.004752291601	1033.108165446627	326.194287398840	281.570446917229	1113.167222415737	222.836449136098	338.700961040815	843.365317037614	391.958124775606	580.191565064350	758.300191138655	300.803613168346	643.523338258611	783.649201635202	200.607877054191	579.793030555064	629.413110075591	44.878323472554	551.475228151586	800.863934038266	96.131559098913	588.531117489994	711.445568278771	37.385076591409	626.865682309975	919.939762207051	40.338012394690	619.391492607049	1022.305524276727	45.408895466048	366.880960481536	1100.979582208519	50.488528591412	291.230438912661	1172.035531747979	125.275282160906	318.633548771471	1306.522420670669	93.181382554037	299.232201075227	747.184840151026	1098.004987446852	207.951298240784	696.202488186006	843.227592309901	232.893249075545	1118.307399181605	1140.375556761136	749.660483621111	1346.171040606049	1166.344270829595	639.728753936525	
22	50.625500000000	732.127986072960	1003.682199496804	497.438405039156	908.690390546171	1413.186610682513	287.932838188120	1026.445097218362	1343.456803296027	439.243458501173	967.644374474202	1431.819527820730	616.292441452533	926.171979310785	1478.913309731909	440.644628362447	957.658222040460	931.372847977410	605.803043002728	933.890889132179	939.306610604956	330.572970530957	951.396576242661	716.691628507143	583.626318273943	843.621791062827	626.792632460719	645.415014083537	902.433109615539	558.181496375568	566.523246339242	881.234293794996	472.805116459599	571.158794905538	1013.970243192349	771.958351291045	371.843664195957	981.200679690857	642.569318177807	287.249794329732	1085.035035528585	591.150558245605	355.339925739939	1115.920509951642	523.612694203247	350.944253695300	1097.217878681978	448.094957308321	337.927484567058	1030.621057086368	320.446910699816	281.322325695485	1112.801799450014	218.536635771615	338.194257336507	839.268938785064	390.463624873569	578.909545035217	753.141094707144	300.508802664561	642.689029800348	777.102081501494	199.891599937821	579.275219057062	621.503799369720	44.979287575662	551.458017500168	792.994580688619	96.121197873062	588.440173071027	703.549197779200	37.426402020937	626.856835484076	912.066312927583	40.172753184002	619.456508916229	1023.726307037474	41.745868827345	368.414640350950	1101.590183958431	46.467593302406	291.926427801787	1172.947958810672	120.837457764092	318.609297105547	1307.195931202717	88.272488986387	298.094108534024	742.967267809145	1099.759303910292	207.171807978075	687.495869592439	845.908415426177	233.156224184827	1120.981463949068	1139.967895199728	745.000559898185	1347.127821425879	1176.587734736655	635.814975526309	
23	50.636714285714	734.147464004661	1001.541374344984	494.519080585389	908.980464912712	1411.867291025210	285.660288703425	1026.799079053922	1342.519785192218	437.084011231544	967.098673611435	1430.211971099660	614.157769303333	925.837767611884	1477.414120823555	438.529989041382	959.639894058508	929.568165682519	603.307964499068	936.356699796697	937.475457907869	328.301809483740	951.677997024742	714.618927020141	581.347612704983	842.970745251559	625.557919798204	643.458746825647	901.049677237066	556.352093432872	564.620473300153	878.963710899882	470.633459426370	569.416382514058	1015.033205267000	767.658460344624	369.330995175565	979.417438741460	638.798450227632	285.258818743623	1082.810733740717	586.312587538559	353.134144072288	1112.083126378372	518.808963038535	348.951761507837	1094.055249514616	443.641323893841	335.813681751588	1027.638504422488	315.321555199071	281.068719257011	1111.184035048518	214.413740130674	337.756743949949	835.785155297967	388.807650353837	577.475484709772	748.451190037325	300.201528211236	641.754768310755	770.798944945276	199.151300759453	578.698005644827	613.606641767453	45.278414653189	551.488551889306	785.205736966781	96.135245956920	588.338207262272	695.684652795960	37.559053933440	626.867313164030	904.232098610066	39.980137040073	619.529482988502	1022.527727605748	39.151976866994	370.102992253114	1099.501538948581	42.977058469416	292.671904226645	1171.796327239235	116.244566474164	318.679209374663	1305.497893542151	82.091076146579	296.858317203301	739.683191742106	1100.884333711901	206.388182649860	679.761217000609	848.075039359842	233.181743977636	1123.079710689092	1139.077189385552	740.292392138916	1347.214058958022	1185.781318531414	632.055055871873	
